<?xml version="1.0" encoding="UTF-8"?>
<!DOCTYPE svg PUBLIC "-//W3C//DTD SVG 1.0//EN" "http://www.w3.org/TR/2001/REC-SVG-20010904/DTD/svg10.dtd">
<!-- Creator: CorelDRAW 2019 (64-Bit) -->
<svg xmlns="http://www.w3.org/2000/svg" xml:space="preserve" width="6.4072mm" height="10.1262mm" version="1.0" shape-rendering="geometricPrecision" text-rendering="geometricPrecision" image-rendering="optimizeQuality" fill-rule="evenodd" clip-rule="evenodd"
viewBox="0 0 21.89 34.59"
 xmlns:xlink="http://www.w3.org/1999/xlink">
 <g id="Icons">
  <metadata id="CorelCorpID_0Corel-Layer"/>
  <path fill="white" fill-rule="nonzero" d="M7.27 23.6c0,-2.26 0.25,-4.05 0.77,-5.36 0.51,-1.31 1.34,-2.44 2.48,-3.4 1.15,-0.97 2.02,-1.85 2.62,-2.64 0.59,-0.8 0.9,-1.68 0.9,-2.64 0,-2.34 -1.01,-3.51 -3.02,-3.51 -0.93,0 -1.68,0.34 -2.25,1.02 -0.58,0.68 -0.88,1.61 -0.91,2.77l-7.85 0c0.03,-3.1 1.01,-5.51 2.93,-7.24 1.92,-1.73 4.62,-2.59 8.09,-2.59 3.45,0 6.13,0.8 8.03,2.39 1.9,1.59 2.85,3.87 2.85,6.81 0,1.28 -0.25,2.46 -0.77,3.51 -0.51,1.05 -1.33,2.13 -2.46,3.23l-2.67 2.49c-0.76,0.73 -1.28,1.48 -1.58,2.24 -0.3,0.77 -0.46,1.74 -0.49,2.92l-6.65 0zm-0.95 7.07c0,-1.15 0.41,-2.09 1.25,-2.82 0.82,-0.74 1.86,-1.1 3.1,-1.1 1.24,0 2.27,0.36 3.1,1.1 0.82,0.74 1.24,1.67 1.24,2.82 0,1.14 -0.42,2.09 -1.24,2.82 -0.83,0.74 -1.86,1.1 -3.1,1.1 -1.24,0 -2.28,-0.36 -3.1,-1.1 -0.83,-0.74 -1.25,-1.68 -1.25,-2.82z"/>
 </g>
</svg>
