<?xml version="1.0" encoding="UTF-8"?>
<!DOCTYPE svg PUBLIC "-//W3C//DTD SVG 1.1//EN" "http://www.w3.org/Graphics/SVG/1.1/DTD/svg11.dtd">
<!-- Creator: CorelDRAW 2021 (64-Bit) -->
<svg xmlns="http://www.w3.org/2000/svg" xml:space="preserve" width="10.6251mm" height="11.2742mm" version="1.1" style="shape-rendering:geometricPrecision; text-rendering:geometricPrecision; image-rendering:optimizeQuality; fill-rule:evenodd; clip-rule:evenodd"
viewBox="0 0 271.21 287.77"
 xmlns:xlink="http://www.w3.org/1999/xlink"
 xmlns:xodm="http://www.corel.com/coreldraw/odm/2003">
 <defs>
  <style type="text/css">
   <![CDATA[
    .fil0 {fill:white}
   ]]>
  </style>
 </defs>
 <g id="Icons">
  <metadata id="CorelCorpID_0Corel-Layer"/>
  <path class="fil0" d="M-0 233.41l113.39 0 0 -56.33c0,-16.07 6.59,-30.7 17.19,-41.3l0.07 -0.07c2.79,-2.79 5.86,-5.3 9.16,-7.49l0 -5.5c0,-21.47 -16.92,-39.19 -38.08,-40.48l-29.27 94.96 -31.26 -95.04 -0.65 0c-22.3,0 -40.55,18.25 -40.55,40.55l0 110.69z"/>
  <circle class="fil0" cx="73" cy="40.55" r="40.55"/>
  <path class="fil0" d="M131.4 287.77l139.81 0 0 -110.69c0,-21.47 -16.92,-39.19 -38.08,-40.48l-29.27 100.07 -31.26 -100.14 -0.65 0c-22.3,0 -40.55,18.25 -40.55,40.55l0 110.69z"/>
  <circle class="fil0" cx="204.4" cy="94.92" r="40.55"/>
 </g>
</svg>
