<?xml version="1.0" encoding="UTF-8"?>
<!DOCTYPE svg PUBLIC "-//W3C//DTD SVG 1.1//EN" "http://www.w3.org/Graphics/SVG/1.1/DTD/svg11.dtd">
<!-- Creator: CorelDRAW 2019 (64-Bit) -->
<svg xmlns="http://www.w3.org/2000/svg" xml:space="preserve" width="8.5237mm" height="11.4678mm" version="1.1" style="shape-rendering:geometricPrecision; text-rendering:geometricPrecision; image-rendering:optimizeQuality; fill-rule:evenodd; clip-rule:evenodd"
viewBox="0 0 42.1 56.64"
 xmlns:xlink="http://www.w3.org/1999/xlink"
 xmlns:xodm="http://www.corel.com/coreldraw/odm/2003">
 <defs>
  <style type="text/css">
   <![CDATA[
    .str0 {stroke:white;stroke-width:5.23;stroke-linecap:round;stroke-miterlimit:22.9256}
    .fil1 {fill:none}
    .fil0 {fill:white}
   ]]>
  </style>
 </defs>
 <g id="Icons">
  <metadata id="CorelCorpID_0Corel-Layer"/>
  <path class="fil0" d="M30.06 6.13l-6.01 0 -9.23 10.33 -13.21 0 -1.31 0 0 23.72 12.16 0 17.6 -24.48 0 -9.57zm-12.53 37.08l6.52 7.3 6.01 0 0 -24.73 -12.53 17.43zm-12.07 -19.56c-0.72,0 -1.31,-0.59 -1.31,-1.31 0,-0.72 0.59,-1.31 1.31,-1.31l8.06 0 0 -1.96 -10.61 0 0 18.49 10.61 0 0 -13.92 -8.06 0z"/>
  <line class="fil1 str0" x1="2.61" y1="54.03" x2="39.49" y2= "2.61" />
 </g>
</svg>
