<?xml version="1.0" encoding="UTF-8"?>
<!DOCTYPE svg PUBLIC "-//W3C//DTD SVG 1.1//EN" "http://www.w3.org/Graphics/SVG/1.1/DTD/svg11.dtd">
<!-- Creator: CorelDRAW 2021 (64-Bit) -->
<svg xmlns="http://www.w3.org/2000/svg" xml:space="preserve" width="8.01mm" height="9.0305mm" version="1.1" style="shape-rendering:geometricPrecision; text-rendering:geometricPrecision; image-rendering:optimizeQuality; fill-rule:evenodd; clip-rule:evenodd"
viewBox="0 0 37.15 41.89"
 xmlns:xlink="http://www.w3.org/1999/xlink"
 xmlns:xodm="http://www.corel.com/coreldraw/odm/2003">
 <defs>
  <style type="text/css">
   <![CDATA[
    .str0 {stroke:white;stroke-width:4.91;stroke-linecap:round;stroke-miterlimit:22.9256}
    .str1 {stroke:white;stroke-width:2.45;stroke-linecap:round;stroke-miterlimit:22.9256}
    .fil1 {fill:none}
    .fil0 {fill:white}
   ]]>
  </style>
 </defs>
 <g id="Icons">
  <metadata id="CorelCorpID_0Corel-Layer"/>
  <path class="fil0" d="M27.95 0l-5.65 0 -8.67 9.7 -12.41 0 -1.23 0 0 22.28 11.42 0 16.53 -22.99 0 -8.99zm-11.77 34.82l6.12 6.85 5.65 0 0 -23.22 -11.77 16.37zm-11.34 -18.37c-0.68,0 -1.23,-0.55 -1.23,-1.23 0,-0.68 0.55,-1.23 1.23,-1.23l7.57 0 0 -1.84 -9.96 0 0 17.37 9.96 0 0 -13.07 -7.57 0z"/>
  <line class="fil1 str0" x1="6.19" y1="39.43" x2="32.46" y2= "2.48" />
  <path class="fil1 str1" d="M33.25 11.76c1.74,2.68 2.67,5.81 2.67,9 0,3.24 -0.95,6.4 -2.74,9.1"/>
 </g>
</svg>
