<?xml version="1.0" encoding="UTF-8"?>
<!DOCTYPE svg PUBLIC "-//W3C//DTD SVG 1.1//EN" "http://www.w3.org/Graphics/SVG/1.1/DTD/svg11.dtd">
<!-- Creator: CorelDRAW 2021 (64-Bit) -->
<svg xmlns="http://www.w3.org/2000/svg" xml:space="preserve" width="12.5505mm" height="13.1365mm" version="1.1" style="shape-rendering:geometricPrecision; text-rendering:geometricPrecision; image-rendering:optimizeQuality; fill-rule:evenodd; clip-rule:evenodd"
viewBox="0 0 96.41 100.91"
 xmlns:xlink="http://www.w3.org/1999/xlink"
 xmlns:xodm="http://www.corel.com/coreldraw/odm/2003">
 <defs>
  <style type="text/css">
   <![CDATA[
    .fil1 {fill:white;fill-rule:nonzero}
    .fil0 {fill:white;fill-rule:nonzero}
   ]]>
  </style>
 </defs>
 <g id="Icons">
  <metadata id="CorelCorpID_0Corel-Layer"/>
  <path class="fil0" d="M16.6 0l30.51 0c4.57,0 8.72,1.87 11.72,4.87 3.01,3.01 4.87,7.16 4.87,11.72l0 23.91 -4.07 0 0 -23.91c0,-3.44 -1.41,-6.58 -3.68,-8.85 -2.27,-2.27 -5.4,-3.68 -8.85,-3.68l-30.51 0c-3.44,0 -6.58,1.41 -8.85,3.68 -2.27,2.27 -3.68,5.4 -3.68,8.85l0 54.09c0,3.44 1.41,6.58 3.68,8.85 2.27,2.27 5.4,3.68 8.85,3.68l30.51 0c3.44,0 6.58,-1.41 8.85,-3.68 2.27,-2.27 3.68,-5.4 3.68,-8.85l0 -10.27 4.07 0 0 10.27c0,4.57 -1.87,8.72 -4.87,11.72 -3.01,3.01 -7.16,4.87 -11.72,4.87l-30.51 0c-4.57,0 -8.72,-1.87 -11.72,-4.87 -3.01,-3.01 -4.87,-7.16 -4.87,-11.72l0 -54.09c0,-4.57 1.87,-8.72 4.87,-11.72 3.01,-3.01 7.16,-4.87 11.72,-4.87z"/>
  <path class="fil0" d="M61.64 13.63l18.17 0c4.57,0 8.72,1.87 11.72,4.87 3.01,3.01 4.87,7.16 4.87,11.72l0 54.09c0,4.57 -1.87,8.72 -4.87,11.72 -3.01,3.01 -7.16,4.87 -11.72,4.87l-30.51 0c-4.37,0 -8.36,-1.71 -11.33,-4.5 -2.99,-2.8 -4.95,-6.7 -5.22,-11.03l-0.14 -2.16 14.5 0c3.44,0 6.58,-1.41 8.85,-3.68 2.27,-2.27 3.68,-5.4 3.68,-8.85l0 -10.27 4.07 0 0 10.27c0,4.57 -1.87,8.72 -4.87,11.72 -3.01,3.01 -7.16,4.87 -11.72,4.87l-9.98 0c0.59,2.4 1.87,4.53 3.62,6.17 2.24,2.1 5.25,3.39 8.55,3.39l30.51 0c3.44,0 6.58,-1.41 8.85,-3.68 2.27,-2.27 3.68,-5.4 3.68,-8.85l0 -54.09c0,-3.44 -1.41,-6.58 -3.68,-8.85 -2.27,-2.27 -5.4,-3.68 -8.85,-3.68l-16.11 0 0 22.81 -4.07 0 0 -24.32 -0.16 -2.56 2.16 0z"/>
  <polygon class="fil1" points="68.59,36.6 88.67,49.53 68.59,62.46 68.59,53.87 54.62,53.87 54.62,62.46 34.53,49.53 54.62,36.6 54.62,45.2 68.59,45.2 "/>
 </g>
</svg>
