<?xml version="1.0" encoding="UTF-8"?>
<!DOCTYPE svg PUBLIC "-//W3C//DTD SVG 1.1//EN" "http://www.w3.org/Graphics/SVG/1.1/DTD/svg11.dtd">
<!-- Creator: CorelDRAW 2021 (64-Bit) -->
<svg xmlns="http://www.w3.org/2000/svg" xml:space="preserve" width="11.249mm" height="10.684mm" version="1.1" style="shape-rendering:geometricPrecision; text-rendering:geometricPrecision; image-rendering:optimizeQuality; fill-rule:evenodd; clip-rule:evenodd"
viewBox="0 0 95.63 90.83"
 xmlns:xlink="http://www.w3.org/1999/xlink"
 xmlns:xodm="http://www.corel.com/coreldraw/odm/2003">
 <defs>
  <style type="text/css">
   <![CDATA[
    .fil0 {fill:white;fill-rule:nonzero}
   ]]>
  </style>
 </defs>
 <g id="Icons">
  <metadata id="CorelCorpID_0Corel-Layer"/>
  <path class="fil0" d="M93.23 0l2.4 3.44c-9.84,7.42 -20.76,18.81 -32.82,34.21 -12.05,15.42 -21.24,29.81 -27.57,43.18l-5.11 3.46c-4.24,2.94 -7.11,5.11 -8.62,6.54 -0.61,-2.17 -1.91,-5.7 -3.93,-10.62l-1.93 -4.5c-2.75,-6.43 -5.32,-11.18 -7.7,-14.27 -2.35,-3.08 -5.02,-5.13 -7.96,-6.14 4.97,-5.23 9.51,-7.84 13.66,-7.84 3.53,0 7.46,4.8 11.8,14.41l2.12 4.83c7.77,-13.11 17.75,-25.85 29.92,-38.21 12.2,-12.36 24.11,-21.87 35.74,-28.49z"/>
 </g>
</svg>
