<?xml version="1.0" encoding="UTF-8"?>
<!DOCTYPE svg PUBLIC "-//W3C//DTD SVG 1.1//EN" "http://www.w3.org/Graphics/SVG/1.1/DTD/svg11.dtd">
<!-- Creator: CorelDRAW 2019 (64-Bit) -->
<svg xmlns="http://www.w3.org/2000/svg" xml:space="preserve" width="8.9165mm" height="11.2869mm" version="1.1" style="shape-rendering:geometricPrecision; text-rendering:geometricPrecision; image-rendering:optimizeQuality; fill-rule:evenodd; clip-rule:evenodd"
viewBox="0 0 199.28 252.25"
 xmlns:xlink="http://www.w3.org/1999/xlink"
 xmlns:xodm="http://www.corel.com/coreldraw/odm/2003">
 <defs>
  <style type="text/css">
   <![CDATA[
    .fil0 {fill:white}
   ]]>
  </style>
 </defs>
 <g id="Icons">
  <metadata id="CorelCorpID_0Corel-Layer"/>
  <path class="fil0" d="M67.94 78.53l7.42 132.11c0.24,4.22 -3.02,7.87 -7.24,8.11l-0 0c-4.22,0.24 -7.87,-3.02 -8.11,-7.24l-7.42 -132.11c-0.24,-4.22 3.02,-7.87 7.24,-8.11l0 0c4.22,-0.24 7.87,3.02 8.11,7.24zm-5.21 -46.77c1.22,-8.04 5.02,-15.26 10.53,-20.78l0.02 -0.02c6.78,-6.77 16.13,-10.96 26.43,-10.96 9.67,0 18.55,3.71 25.25,9.84 6.13,5.62 10.41,13.26 11.74,21.92l62.58 0 0 22.47 -163.71 0 12.49 186.2 103.16 0 11.4 -170 11.84 0 -12.2 181.83 -125.24 0 -13.29 -198.03 -23.73 0 0 -22.47 62.73 0zm61.95 0c-1.17,-5.22 -3.9,-9.8 -7.66,-13.24 -4.55,-4.17 -10.64,-6.7 -17.3,-6.7 -7.08,0 -13.48,2.85 -18.09,7.47l-0.02 0.02c-3.35,3.35 -5.77,7.63 -6.85,12.44l49.92 0z"/>
  <path class="fil0" d="M100.18 79.57l3.39 132.27c0.11,4.23 -3.26,7.77 -7.48,7.88l-0 0c-4.23,0.11 -7.77,-3.26 -7.88,-7.49l-3.39 -132.27c-0.11,-4.23 3.26,-7.77 7.48,-7.88l0 0c4.23,-0.11 7.77,3.26 7.88,7.49z"/>
 </g>
</svg>
