<?xml version="1.0" encoding="UTF-8"?>
<!DOCTYPE svg PUBLIC "-//W3C//DTD SVG 1.1//EN" "http://www.w3.org/Graphics/SVG/1.1/DTD/svg11.dtd">
<!-- Creator: CorelDRAW 2019 (64-Bit) -->
<svg xmlns="http://www.w3.org/2000/svg" xml:space="preserve" width="9.5666mm" height="8.9838mm" version="1.1" style="shape-rendering:geometricPrecision; text-rendering:geometricPrecision; image-rendering:optimizeQuality; fill-rule:evenodd; clip-rule:evenodd"
viewBox="0 0 65.89 61.88"
 xmlns:xlink="http://www.w3.org/1999/xlink"
 xmlns:xodm="http://www.corel.com/coreldraw/odm/2003">
 <defs>
  <style type="text/css">
   <![CDATA[
    .str0 {stroke:white;stroke-width:3.64;stroke-linecap:round;stroke-miterlimit:22.9256}
    .fil0 {fill:none}
    .fil1 {fill:white}
   ]]>
  </style>
 </defs>
 <g id="Icons">
  <metadata id="CorelCorpID_0Corel-Layer"/>
  <path class="fil0 str0" d="M51.3 17.46c2.59,3.98 3.97,8.62 3.97,13.37 0,4.81 -1.41,9.51 -4.07,13.52"/>
  <path class="fil0 str0" d="M54.37 4.99c6.25,7.2 9.7,16.41 9.7,25.95 0,9.58 -3.47,18.83 -9.78,26.04"/>
  <path class="fil1" d="M41.5 0l-8.38 0 -12.87 14.4 -18.43 0 -1.82 0 0 33.08 20.25 0 12.87 14.4 8.38 0 0 -61.88zm-34.31 24.42c-1.01,0 -1.82,-0.82 -1.82,-1.82 0,-1.01 0.82,-1.82 1.82,-1.82l11.24 0 0 -2.73 -14.79 0 0 25.79 14.79 0 0 -19.41 -11.24 0z"/>
 </g>
</svg>
